<svg aria-hidden="true" style="width:0;height:0;position:absolute;overflow:hidden" xmlns="http://www.w3.org/2000/svg"><defs><symbol id="mobile-menu-btn-close" viewBox="0 0 30 32"><path d="m16.22 14.83 4.929-4.925a1.013 1.013 0 0 0-1.431-1.428l.001-.001-4.928 4.875-4.96-4.957a1.014 1.014 0 0 0-1.428 1.429l-.001-.002 4.949 5.007-4.848 4.783a1.013 1.013 0 1 0 1.429 1.431l.001-.001 4.837-4.833 4.808 4.803a1.014 1.014 0 0 0 1.428-1.43l.001.002-4.787-4.752z"/></symbol><symbol id="toggle-menu" viewBox="0 0 32 32"><path d="M2.668 8.004c0-.737.597-1.334 1.334-1.334h24.013a1.334 1.334 0 1 1 0 2.668H4.002a1.334 1.334 0 0 1-1.334-1.334zm0 8.047a1.335 1.335 0 0 1 1.334-1.333h24.013l.039-.001a1.334 1.334 0 1 1 0 2.668l-.041-.001h.002H4.002a1.334 1.334 0 0 1-1.334-1.334zm1.334 6.714A1.335 1.335 0 0 0 4 25.433h24.015l.039.001a1.334 1.334 0 1 0 0-2.668l-.041.001h.002H4.002z"/></symbol><symbol id="logo" viewBox="0 0 41 32"><path fill="#ffe550" style="fill:var(--color1,#ffe550)" d="M14.143 6.46c1.01-1.982 3.836-1.982 4.846 0l1.28 2.51a2.729 2.729 0 0 0 1.98 1.45l.016.002 2.772.442c2.196.35 3.07 3.049 1.497 4.625l-1.978 1.983a2.725 2.725 0 0 0-.763 2.372l-.002-.016.437 2.773c.346 2.2-1.94 3.868-3.92 2.858l-2.511-1.278c-.358-.186-.783-.296-1.232-.296s-.874.109-1.247.303l.015-.007-2.511 1.278c-1.98 1.009-4.267-.658-3.92-2.858l.437-2.773a2.725 2.725 0 0 0-.765-2.356l-1.978-1.983c-1.572-1.576-.698-4.276 1.497-4.625l2.772-.441a2.73 2.73 0 0 0 1.989-1.438l.007-.015 1.28-2.51z"/><path fill="#2c2c2c" style="fill:var(--color2,#2c2c2c)" d="m1.116 20.362-.021.005a76.868 76.868 0 0 0-.013 1.932c0 .157-.004.285-.01.384l.001.336c0 .104-.007.207-.021.308l.001-.012-.018.206c-.014.13-.042.201-.084.211-.092.022-.235-.049-.431-.212-.197-.17-.31-.319-.34-.447s-.038-1.06-.023-2.798c.021-1.74-.026-2.884-.14-3.433a.412.412 0 0 1 .014-.274l-.001.003c.036-.166.219-.321.55-.467.338-.147.843-.3 1.514-.459.678-.16 1.216-.25 1.614-.27.405-.021.623.032.652.16.021.085-.025.159-.137.223s-.211.117-.298.16c.121-.039.006.008-.109.054l-.239.085c-.145.049-.279.096-.403.14-.126.037-.288.09-.488.16-.193.068-.372.133-.536.194-.166.054-.39.133-.671.237s-.463.17-.546.197c.012.02.023.05.033.093.079.332.122 1.13.129 2.392a10.72 10.72 0 0 0 1.402-.366c.498-.162.804-.257.917-.284.269-.063.416-.039.443.074.052.22-.212.476-.791.77a8.607 8.607 0 0 1-1.95.697zm6.917-1.951a2.018 2.018 0 0 0-.282-.66l.005.008c-.13-.201-.281-.334-.452-.398-.455.25-.786.729-.992 1.435-.201.698-.236 1.319-.108 1.865s.343.854.644.924c.485-.219.834-.668 1.046-1.346.218-.687.265-1.297.139-1.828zm-2.764.755c.117-.611.33-1.14.642-1.588.318-.457.684-.734 1.102-.833.423-.1.819-.003 1.187.291.366.287.61.689.732 1.206.121.51.121 1.063.001 1.66a3.783 3.783 0 0 1-.72 1.58l.006-.009c-.349.449-.767.731-1.254.846-.361.086-.7-.01-1.019-.286s-.538-.669-.658-1.179c-.123-.517-.129-1.08-.019-1.689zm7.564-1.892a2.018 2.018 0 0 0-.282-.66l.005.008c-.129-.201-.281-.334-.452-.398-.455.25-.786.728-.992 1.434-.201.698-.236 1.32-.107 1.865.129.546.343.854.643.925.486-.22.834-.668 1.047-1.347.218-.687.265-1.296.138-1.828zm-2.763.755a4.1 4.1 0 0 1 .642-1.588c.318-.457.684-.734 1.102-.833.423-.1.82-.004 1.188.291.366.287.61.689.732 1.206.121.51.121 1.063.001 1.66a3.78 3.78 0 0 1-.72 1.579l.006-.009c-.349.449-.767.731-1.254.847-.361.085-.7-.01-1.018-.286s-.538-.669-.659-1.178c-.122-.517-.129-1.08-.019-1.689zm7.769-6.987c.113-.027.276.047.489.221.218.165.349.34.392.524s.079.729.107 1.634c.026.898.031 1.836.015 2.812-.02 2.188-.111 3.301-.273 3.34-.098.023-.223-.011-.371-.103-.143-.101-.226-.197-.247-.289s-.041-.282-.057-.57c-.524.872-1.045 1.369-1.561 1.491-.311.074-.626-.001-.948-.225-.314-.225-.508-.489-.579-.794-.105-.439-.111-.986-.02-1.644a5.612 5.612 0 0 1 .651-1.929l-.015.028c.327-.601.742-.961 1.243-1.079.502-.119.923.099 1.263.654.006-1.586-.077-2.818-.247-3.698-.05-.212.002-.337.158-.374zm.068 5.491c-.091-.382-.234-.689-.431-.919-.188-.232-.375-.326-.559-.282-.303.072-.57.333-.799.783a4.554 4.554 0 0 0-.454 1.452l-.003.024c-.07.525-.063.964.021 1.318a.398.398 0 0 0 .208.275l.002.001a.493.493 0 0 0 .359.038l-.004.001c.276-.065.599-.351.972-.858a3.581 3.581 0 0 0 .696-1.646l.002-.135-.012-.052zm6.764-.637c.137.581-.009 1.131-.438 1.652a3.021 3.021 0 0 1-1.663 1.01c-.671.159-1.266.117-1.786-.127-.522-.25-.819-.532-.892-.843-.051-.212-.012-.334.115-.364.113-.027.375.09.788.352.156.09.352.163.589.219.244.055.486.054.726-.004a2.37 2.37 0 0 0 1.223-.693c.329-.347.457-.669.387-.966-.045-.191-.23-.406-.554-.643a7.357 7.357 0 0 0-1.004-.619l-.042-.02a8.232 8.232 0 0 1-1.061-.677l.021.015c-.326-.244-.511-.455-.553-.632a1.669 1.669 0 0 1-.027-.596l-.001.009c.024-.215.068-.378.13-.49.203-.37.564-.751 1.083-1.143.526-.394.987-.638 1.383-.731a.738.738 0 0 1 .57.081l-.003-.002c.174.101.278.226.313.374.017.071-.044.145-.182.223s-.351.188-.638.33a5.125 5.125 0 0 0-.757.433l.017-.011c-.738.505-1.074.901-1.005 1.191.037.156.553.494 1.548 1.013.414.221.77.474 1.091.767L24.045 15c.346.3.555.598.625.895zm2.433.535c.032.135.126.183.281.147.268-.064.575-.215.922-.454.351-.247.548-.377.591-.386.127-.03.207.022.239.156.048.206-.108.493-.468.862-.353.368-.703.593-1.049.674-.339.08-.644.055-.913-.075-.271-.138-.43-.306-.477-.505a2.988 2.988 0 0 1-.051-.783c.011-.332.035-.767.071-1.307.042-.548.07-1 .082-1.354-.314.156-.527.248-.64.274s-.239-.003-.379-.09c-.134-.095-.214-.196-.239-.302-.04-.17.381-.442 1.262-.815a7.711 7.711 0 0 0-.178-1.606c-.05-.212-.005-.335.137-.369.12-.028.287.015.5.129.212.106.34.255.385.447s.065.542.058 1.052c.394-.131.711-.225.951-.281.425-.101.658-.058.702.126.025.106-.071.222-.287.348-.209.124-.663.348-1.363.67-.016.594-.052 1.28-.107 2.055-.057.769-.067 1.231-.03 1.386zm4.735-5.562c.318-.075.649.018.995.281.343.255.546.513.608.775.06.255.034.538-.079.849.11.086.174.167.193.246.047.198.081.549.103 1.052.03.502.051.829.065.983.021.152.036.276.043.371.006.089.009.177.007.268.014.183-.029.287-.128.311-.127.03-.258-.055-.396-.254a3.191 3.191 0 0 1-.343-.838c-.44.949-.928 1.487-1.465 1.614-.325.077-.679.015-1.062-.186-.378-.209-.602-.463-.672-.761-.1-.425-.069-.986.095-1.682.173-.744.452-1.4.826-1.99l-.015.026c.379-.606.788-.96 1.225-1.065zm.929 1.754c-.156-.658-.364-.957-.626-.895-.275.065-.55.34-.823.823a5.777 5.777 0 0 0-.61 1.508l-.009.041c-.137.556-.171.979-.103 1.27a.373.373 0 0 0 .217.261l.002.001a.6.6 0 0 0 .374.023c.332-.079.654-.39.965-.935a3.83 3.83 0 0 0 .48-1.852c-.004-.111.041-.189.135-.234l-.002-.01z"/><path fill="#bbf330" style="fill:var(--color3,#bbf330)" d="M30.759 19.978a.913.913 0 0 0-.641.602c-1.906 5.65-7.244 9.719-13.535 9.719a14.23 14.23 0 0 1-9.841-3.934.91.91 0 0 0-.852-.231l.006-.001c-.639.158-.88.934-.406 1.392a15.864 15.864 0 0 0 11.072 4.481h.021-.001c7.078 0 13.081-4.606 15.182-10.986.206-.626-.368-1.199-1.006-1.041zM1.866 14.155a.908.908 0 0 0 .664-.719l.001-.005C3.742 6.767 9.57 1.712 16.582 1.712c4.559 0 8.617 2.137 11.232 5.464a.903.903 0 0 0 .923.329c.583-.145.847-.825.478-1.301C26.291 2.433 21.72.006 16.581.006 8.7.006 2.151 5.717.839 13.231c-.103.592.445 1.07 1.028.926zm38.749-8.818c-3.777 7.241-5.435 2.465-10.753 5.27.532-8.405 6.163-3.291 10.753-5.27z"/></symbol><symbol id="icon-hero-svg1" viewBox="0 0 32 32"><path fill="#7eb101" style="fill:var(--color1,#7eb101)" d="m7.23 13.63 3.54 1.5a31.56 31.56 0 0 1 2.73-4.6L10.87 10l-3.64 3.63zm5.14 2.7 4.43 4.44c1.27-.58 2.46-1.24 3.57-1.97s2-1.45 2.7-2.13c1.8-1.8 3.12-3.65 3.96-5.54s1.3-4.02 1.37-6.4c-2.38.07-4.51.52-6.4 1.37a18.84 18.84 0 0 0-7.67 6.67 26.24 26.24 0 0 0-1.96 3.56zm7.63-3.2c-.44-.44-.67-1-.67-1.65s.23-1.2.67-1.65 1-.66 1.65-.66c.66 0 1.2.22 1.65.66s.67 1 .67 1.65c0 .66-.23 1.2-.67 1.65s-1 .67-1.65.67-1.2-.22-1.65-.67zm-.5 12.77 3.63-3.63-.53-2.64c-.71.52-1.46 1-2.23 1.45s-1.57.89-2.37 1.29l1.5 3.53zM30.37 2.77c.2 3.02-.18 5.77-1.14 8.26s-2.53 4.84-4.73 7.04l-.13.13.73 3.67c.07.33.05.65-.05.96s-.27.6-.52.84l-5.7 5.73L16 22.8l-5.67-5.67-6.6-2.83 5.74-5.7c.24-.24.52-.42.83-.52s.63-.11.97-.05l3.66.74.07-.05a19.1 19.1 0 0 1 15.37-5.95zm-24.4 18.4c.77-.78 1.72-1.18 2.85-1.19s2.07.38 2.85 1.15c.77.78 1.16 1.73 1.15 2.85s-.4 2.08-1.19 2.85c-.57.58-1.47 1.06-2.68 1.44S5.92 29 3.5 29.33c.33-2.42.68-4.24 1.05-5.46s.84-2.12 1.42-2.7zm1.4 1.43c-.31.33-.6.86-.84 1.57s-.45 1.62-.63 2.73c1.11-.18 2.02-.39 2.73-.63s1.24-.52 1.57-.84c.42-.37.64-.85.65-1.41s-.18-1.06-.58-1.49a2.02 2.02 0 0 0-2.9.07z"/></symbol><symbol id="icon-hero-svg2" viewBox="0 0 32 32"><path fill="#7eb101" style="fill:var(--color1,#7eb101)" d="M15.5 1.33c2.02 0 3.75.7 5.18 2.12s2.15 3.13 2.15 5.15a7.34 7.34 0 0 1-2.86 5.87h-1.14V12.8a5.36 5.36 0 0 0 .43-7.93 5.2 5.2 0 0 0-3.76-1.54c-1.47 0-2.72.51-3.77 1.54s-1.57 2.26-1.57 3.73a5.41 5.41 0 0 0 2 4.2v2.4a7.33 7.33 0 0 1-4-6.6c0-2.02.72-3.74 2.15-5.15s3.17-2.12 5.19-2.12zm-1.27 28a2.75 2.75 0 0 1-1.93-.8l-6.87-6.86 1.87-1.94c.31-.3.66-.55 1.05-.71s.8-.2 1.22-.09l2.6.6V8.67c0-.94.32-1.73.96-2.37s1.44-.97 2.37-.97c.93 0 1.72.32 2.37.97s.97 1.43.97 2.37v5.73h.86c.11 0 .21.02.3.07l.3.13 4.94 2.4c.53.24.92.64 1.18 1.18s.33 1.1.22 1.69l-1.2 7.26c-.12.65-.43 1.17-.94 1.59s-1.09.61-1.73.61h-8.53zm-.26-2h9.36l1.44-8.3-6.1-3.03h-1.84V8.67c0-.4-.12-.73-.36-.97s-.57-.37-.97-.37-.72.12-.97.37a1.3 1.3 0 0 0-.36.97v13.3l-5.14-1.1-.76.76 5.7 5.7zm9.36 0z"/></symbol><symbol id="icon-chevron-down" viewBox="0 0 32 32"><path d="M21.62 15.2c.33.32.33.86 0 1.19l-8.59 8.59a.84.84 0 0 1-1.19 0l-.4-.4a.84.84 0 0 1 0-1.19l7.6-7.6-7.6-7.6a.84.84 0 0 1 0-1.19l.4-.4a.84.84 0 0 1 1.2 0l8.58 8.6z"/></symbol><symbol id="icon-alarm" viewBox="0 0 32 32"><path fill="none" stroke="#ff705d" style="stroke:var(--color1,#ff705d)" stroke-linejoin="round" stroke-linecap="round" stroke-width="2.286" d="M16 11.429v6.857M16.002 26.286a1.143 1.143 0 1 0 0-2.287 1.143 1.143 0 0 0 0 2.287z"/><path fill="none" stroke="#ff705d" style="stroke:var(--color1,#ff705d)" stroke-linejoin="round" stroke-linecap="round" stroke-width="2.286" d="M18.036 2.4a2.286 2.286 0 0 0-4.068 0L1.397 27.543a2.281 2.281 0 0 0 .094 2.224 2.287 2.287 0 0 0 1.941 1.09h25.143a2.28 2.28 0 0 0 1.941-1.09 2.292 2.292 0 0 0 .093-2.224L18.038 2.4z"/></symbol><symbol id="right" viewBox="0 0 37 32"><path fill="#fff" style="fill:var(--color1,#fff)" d="M33.778 3.556v17.778a3.556 3.556 0 0 1-3.556 3.556H7.111a3.556 3.556 0 0 1-3.556-3.556V3.556A3.556 3.556 0 0 1 7.111 0h23.111a3.556 3.556 0 0 1 3.556 3.556z"/><path fill="#fff" style="fill:var(--color1,#fff);stroke:var(--color2,#2c2c2c)" stroke="#2c2c2c" stroke-width=".889" d="M25.102 12.203a.327.327 0 0 1 .076.372.35.35 0 0 1-.076.11l-8.669 8.26a.333.333 0 0 1-.457.003l-.005-.005-.008-.008a.28.28 0 0 1-.084-.197c0-.037.007-.073.022-.107a.295.295 0 0 1 .062-.09l8.501-8.096-8.502-8.1a.28.28 0 0 1-.084-.197c0-.037.007-.073.022-.107a.295.295 0 0 1 .062-.09l.008-.008.005-.005a.336.336 0 0 1 .457.003l8.669 8.26z"/></symbol><symbol id="left" viewBox="0 0 37 32"><path fill="#fff" style="fill:var(--color1,#fff)" d="M3.556 21.333V3.555A3.556 3.556 0 0 1 7.112-.001h23.111a3.556 3.556 0 0 1 3.556 3.556v17.778a3.556 3.556 0 0 1-3.556 3.556H7.112a3.556 3.556 0 0 1-3.556-3.556z"/><path fill="#fff" style="fill:var(--color1,#fff);stroke:var(--color2,#2c2c2c)" stroke="#2c2c2c" stroke-width=".889" d="M12.231 12.686a.327.327 0 0 1-.076-.372.35.35 0 0 1 .076-.11l8.669-8.26a.333.333 0 0 1 .457-.003l.005.005.008.008a.28.28 0 0 1 .084.197.263.263 0 0 1-.022.107.295.295 0 0 1-.062.09l-8.501 8.096 8.502 8.1a.28.28 0 0 1 .084.197c0 .037-.007.073-.022.107s-.036.064-.062.09l-.008.008-.005.005a.336.336 0 0 1-.457-.003l-8.669-8.26z"/></symbol><symbol id="icon-stars" viewBox="0 0 36 32"><path fill="#ffe550" style="fill:var(--color1,#ffe550)" d="M15.639 1.037c.593-1.383 2.611-1.383 3.204 0l3.498 8.164c.25.583.815.982 1.463 1.032l9.079.707c1.538.12 2.162 1.983.99 2.958l-6.917 5.752a1.656 1.656 0 0 0-.559 1.67l2.113 8.6c.358 1.457-1.275 2.609-2.592 1.828l-7.773-4.609a1.781 1.781 0 0 0-1.809 0l-7.773 4.609c-1.317.781-2.95-.371-2.592-1.828l2.113-8.6a1.656 1.656 0 0 0-.559-1.67L.607 13.898c-1.172-.975-.548-2.838.99-2.958l9.079-.707a1.73 1.73 0 0 0 1.463-1.032l3.498-8.164z"/></symbol><symbol id="right" viewBox="0 0 37 32"><path fill="#fff" style="fill:var(--color1,#fff)" d="M33.778 3.556v17.778a3.556 3.556 0 0 1-3.556 3.556H7.111a3.556 3.556 0 0 1-3.556-3.556V3.556A3.556 3.556 0 0 1 7.111 0h23.111a3.556 3.556 0 0 1 3.556 3.556z"/><path fill="#fff" style="fill:var(--color1,#fff);stroke:var(--color2,#2c2c2c)" stroke="#2c2c2c" stroke-width=".889" d="M25.102 12.203a.327.327 0 0 1 .076.372.35.35 0 0 1-.076.11l-8.669 8.26a.333.333 0 0 1-.457.003l-.005-.005-.008-.008a.28.28 0 0 1-.084-.197c0-.037.007-.073.022-.107a.295.295 0 0 1 .062-.09l8.501-8.096-8.502-8.1a.28.28 0 0 1-.084-.197c0-.037.007-.073.022-.107a.295.295 0 0 1 .062-.09l.008-.008.005-.005a.336.336 0 0 1 .457.003l8.669 8.26z"/></symbol><symbol id="left" viewBox="0 0 37 32"><path fill="#fff" style="fill:var(--color1,#fff)" d="M3.556 21.333V3.555A3.556 3.556 0 0 1 7.112-.001h23.111a3.556 3.556 0 0 1 3.556 3.556v17.778a3.556 3.556 0 0 1-3.556 3.556H7.112a3.556 3.556 0 0 1-3.556-3.556z"/><path fill="#fff" style="fill:var(--color1,#fff);stroke:var(--color2,#2c2c2c)" stroke="#2c2c2c" stroke-width=".889" d="M12.231 12.686a.327.327 0 0 1-.076-.372.35.35 0 0 1 .076-.11l8.669-8.26a.333.333 0 0 1 .457-.003l.005.005.008.008a.28.28 0 0 1 .084.197.263.263 0 0 1-.022.107.295.295 0 0 1-.062.09l-8.501 8.096 8.502 8.1a.28.28 0 0 1 .084.197c0 .037-.007.073-.022.107s-.036.064-.062.09l-.008.008-.005.005a.336.336 0 0 1-.457-.003l-8.669-8.26z"/></symbol><symbol id="btn-close" viewBox="0 0 32 32"><path d="m26.667 7.303-1.97-1.97-7.808 7.808-7.808-7.808-1.97 1.97 7.808 7.808-7.808 7.808 1.97 1.97 7.808-7.808 7.808 7.808 1.97-1.97-7.808-7.808 7.808-7.808z"/></symbol></defs></svg>